<?xml version="1.0" ?><svg style="enable-background:new 0 0 24 24;" version="1.1" viewBox="0 0 24 24" xml:space="preserve" xmlns="http://www.w3.org/2000/svg" xmlns:xlink="http://www.w3.org/1999/xlink"><style type="text/css">
	.st0{opacity:0.2;fill:none;stroke:#000000;stroke-width:5.000000e-02;stroke-miterlimit:10;}
</style><g id="grid_system"/><g id="_icons"><path d="M4.8,14.5c0,0.7,0.2,1.5,0.8,2l1.9,1.9c0.5,0.5,1.2,0.8,1.9,0.8c0,0,0,0,0.1,0l1.4,2.6c0.2,0.3,0.4,0.5,0.7,0.5   c0,0,0.1,0,0.1,0c0.3,0,0.5-0.1,0.7-0.3l3.8-3.8c0.2-0.2,0.3-0.4,0.3-0.6l0.2-3c0.1-0.1,0.1-0.1,0.2-0.2c0.7-0.7,1.4-1.5,2-2.3   c1.1-1.4,1.7-3.1,1.8-4.7l0.1-0.9c0.1-1-0.2-1.8-0.9-2.5c-0.6-0.6-1.5-0.9-2.5-0.9l-0.9,0.1C15,3.4,13.3,4,11.9,5.1   C11,5.7,10.2,6.5,9.4,7.3l-3,0.2C6.2,7.5,6,7.6,5.8,7.8L2,11.6c-0.2,0.2-0.3,0.5-0.3,0.8c0,0.3,0.2,0.6,0.5,0.7L4.8,14.5z M14.5,17   L12,19.6l-0.6-1.1l1.5-0.9c0.6-0.3,1.1-0.7,1.7-1.1c0,0,0,0,0.1,0L14.5,17z M13.1,6.7c1.1-0.8,2.4-1.3,3.7-1.4l0.9-0.1   c0,0,0.1,0,0.1,0c0.3,0,0.6,0.1,0.8,0.3c0.2,0.2,0.3,0.5,0.3,0.9l-0.1,0.9c-0.1,1.3-0.6,2.5-1.4,3.7c-0.6,0.8-1.2,1.5-1.8,2.1l0,0   c-0.1,0.1-0.3,0.3-0.4,0.4c-1,1-2.1,1.8-3.3,2.5L10,17c-0.1,0.1-0.2,0.1-0.3,0.1c-0.3,0.1-0.6,0-0.8-0.1L7,15.1   c-0.2-0.2-0.2-0.5-0.1-0.8c0,0,0-0.1,0.1-0.3l1.1-1.8c0.7-1.2,1.5-2.3,2.5-3.3C11.3,8.1,12.2,7.4,13.1,6.7z M7,9.5l0.6,0   c0,0,0,0.1-0.1,0.1c-0.4,0.5-0.8,1.1-1.1,1.7l-0.9,1.4L4.4,12L7,9.5z"/><circle cx="15" cy="9" r="2"/></g></svg>